<?xml version="1.0" encoding="utf-8"?>
<!-- Generator: Adobe Illustrator 22.0.1, SVG Export Plug-In . SVG Version: 6.00 Build 0)  -->
<svg version="1.1" id="Layer_1" xmlns="http://www.w3.org/2000/svg" xmlns:xlink="http://www.w3.org/1999/xlink" x="0px" y="0px"
	 viewBox="0 0 77.7 74.7" style="enable-background:new 0 0 77.7 74.7;" xml:space="preserve">
<style type="text/css">
	.st0{fill:#FFFFFF;stroke:#FFFFFF;stroke-width:3;stroke-linecap:round;stroke-linejoin:round;stroke-miterlimit:10;}
	.st1{fill:#D14D81;}
	.st2{fill:none;stroke:#D14D81;stroke-width:2.481;stroke-linecap:round;stroke-linejoin:round;stroke-miterlimit:10;}
</style>
<g>
	<polygon class="st0" points="38.9,1.5 50.4,25.1 76.2,28.9 57.6,47.3 62,73.2 38.9,61 15.8,73.2 20.2,47.3 1.5,28.9 27.3,25.1 	"/>
	<g>
		<path class="st1" d="M31.2,33.5c-1.6,0-2.9,1.3-2.9,2.9s1.3,2.9,2.9,2.9s2.9-1.3,2.9-2.9S32.8,33.5,31.2,33.5L31.2,33.5z"/>
	</g>
	<g>
		<path class="st1" d="M46.9,33.5c-1.6,0-2.9,1.3-2.9,2.9s1.3,2.9,2.9,2.9s2.9-1.3,2.9-2.9S48.5,33.5,46.9,33.5L46.9,33.5z"/>
	</g>
	<path class="st2" d="M31.2,49.6c7.1-2.8,13.3-3,15.7,0c0.3,0.4,0.6,1,0.8,1.7"/>
</g>
</svg>
