<?xml version="1.0" encoding="utf-8"?>
<!-- Generator: Adobe Illustrator 22.0.1, SVG Export Plug-In . SVG Version: 6.00 Build 0)  -->
<svg version="1.1" id="Layer_1" xmlns="http://www.w3.org/2000/svg" xmlns:xlink="http://www.w3.org/1999/xlink" x="0px" y="0px"
	 viewBox="0 0 41 41" style="enable-background:new 0 0 41 41;" xml:space="preserve">
<style type="text/css">
	.st0{fill:#FFFFFF;stroke:#FFFFFF;stroke-miterlimit:10;}
</style>
<g>
	<g>
		<g>
			<path class="st0" d="M18.1,0.5C8.4,0.5,0.5,8.4,0.5,18.1c0,9.7,7.9,17.6,17.6,17.6c9.7,0,17.6-7.9,17.6-17.6
				C35.7,8.4,27.8,0.5,18.1,0.5z M18.1,32.5c-7.9,0-14.4-6.4-14.4-14.4S10.2,3.8,18.1,3.8s14.4,6.4,14.4,14.4S26,32.5,18.1,32.5z"/>
		</g>
	</g>
	<g>
		<g>
			<path class="st0" d="M40,37.7l-9.3-9.3c-0.6-0.6-1.7-0.6-2.3,0c-0.6,0.6-0.6,1.7,0,2.3l9.3,9.3c0.3,0.3,0.7,0.5,1.1,0.5
				c0.4,0,0.8-0.2,1.1-0.5C40.7,39.4,40.7,38.4,40,37.7z"/>
		</g>
	</g>
</g>
</svg>
